<svg xmlns="http://www.w3.org/2000/svg" width="51" height="34" viewBox="0 0 51 34"><defs><style>.a{fill:#fff;stroke:#e4e4e4;stroke-miterlimit:10;}.b{fill:#2566af;}.c{fill:#e6a540;}.d{stroke:none;}.e{fill:none;}</style></defs><g transform="translate(0 0)"><g class="a" transform="translate(0 0)"><rect class="d" width="51" height="33" rx="6"/><rect class="e" x="0.5" y="0.5" width="50" height="32" rx="5.5"/></g><g transform="translate(6.012 10.521)"><path class="b" d="M17.347,11.28l.434-2.588c1.2.986,4.828,1.266,4.828-.3s-4.047-1.6-4.047-4.579C18.562.651,22.01,0,23.463,0a8.248,8.248,0,0,1,2.631.5l-.418,2.474c-1.251-.707-4.1-.875-4.1.429s4.084,1.581,4.084,4.579c0,2.885-3.013,3.946-5.009,3.946A8.023,8.023,0,0,1,17.347,11.28Zm15.823.452-.344-1.713H29.108l-.61,1.713h-3.05L29.811,1.065a1.349,1.349,0,0,1,1.35-.859h2.352l2.343,11.527Zm-20.552,0L14.447.206h2.926L15.544,11.732Zm-7.015,0L3.06,1.718A10.781,10.781,0,0,0,0,.4l.054-.2H4.666A1.264,1.264,0,0,1,6.053,1.243l.985,5.184h0l.33,1.707L10.156.206h3.149L8.651,11.732Z" transform="translate(0 0)"/><path class="c" d="M7.038,6.221,6.053,1.038A1.264,1.264,0,0,0,4.665,0H.054L0,.2A11.211,11.211,0,0,1,4.342,2.431,9,9,0,0,1,7.038,6.221Z" transform="translate(0 0.206)"/></g></g></svg>