<svg xmlns="http://www.w3.org/2000/svg" width="203" height="78" viewBox="0 0 203 78"><defs><style>.a{fill:none;}.b{fill:#067b15;}</style></defs><g transform="translate(-0.447 -8.07)"><g transform="translate(0 8)"><rect class="a" width="203" height="78" transform="translate(0.447 0.07)"/><rect class="a" width="1" height="78" transform="translate(202.447 0.07)"/><rect class="a" width="1" height="78" transform="translate(0.447 0.07)"/><path class="b" d="M117.239,48.227H12.82A12.819,12.819,0,0,1,0,35.407V13.43A12.82,12.82,0,0,1,12.82.61H117.239A24.609,24.609,0,0,1,122.7,0a24.418,24.418,0,0,1,17.267,41.684A24.262,24.262,0,0,1,122.7,48.837,24.608,24.608,0,0,1,117.239,48.227ZM1.221,13.43V35.407a11.6,11.6,0,0,0,11.6,11.6H113.391a24.446,24.446,0,0,1,0-45.174H12.82A11.6,11.6,0,0,0,1.221,13.43ZM122.7,10.924l-13.459,5.729a43.846,43.846,0,0,0,2.018,10.629c1.638,4.85,4.952,10.63,11.443,10.63s9.8-5.78,11.441-10.63a43.576,43.576,0,0,0,2.019-10.629L122.7,10.924h0ZM51.486,35.4a5.526,5.526,0,0,1-1.438-4.082V24.568h2.79v6.65c0,2.149.9,3.238,2.687,3.238a2.529,2.529,0,0,0,2-.783,3.672,3.672,0,0,0,.689-2.455v-6.65H60.97v6.754A5.7,5.7,0,0,1,51.486,35.4Zm-11.709.63a6.015,6.015,0,0,1-2.343-2.223,6.482,6.482,0,0,1,0-6.426,6,6,0,0,1,2.343-2.222,7.472,7.472,0,0,1,6.184-.249A5.691,5.691,0,0,1,48.09,26.5L46.3,28.152a3.867,3.867,0,0,0-3.032-1.412,4.044,4.044,0,0,0-2,.49A3.513,3.513,0,0,0,39.9,28.6a4.315,4.315,0,0,0,0,4,3.5,3.5,0,0,0,1.37,1.37,4.042,4.042,0,0,0,2,.491A3.85,3.85,0,0,0,46.3,33.027l1.792,1.654a5.612,5.612,0,0,1-2.136,1.6,7.148,7.148,0,0,1-2.843.552A6.966,6.966,0,0,1,39.777,36.034Zm-24.331.413A6.526,6.526,0,0,1,13.3,35.439l.948-2.1a6.45,6.45,0,0,0,1.843.913,6.972,6.972,0,0,0,2.137.345,3.428,3.428,0,0,0,1.757-.354,1.069,1.069,0,0,0,.568-.938.9.9,0,0,0-.335-.715,2.56,2.56,0,0,0-.861-.456c-.35-.115-.829-.243-1.422-.379A19.74,19.74,0,0,1,15.68,31.1a3.684,3.684,0,0,1-1.507-1.05,2.851,2.851,0,0,1-.63-1.93,3.373,3.373,0,0,1,.57-1.9,3.848,3.848,0,0,1,1.714-1.352,7.031,7.031,0,0,1,2.8-.5,9.343,9.343,0,0,1,2.257.275,6.687,6.687,0,0,1,1.93.793l-.861,2.119a6.755,6.755,0,0,0-3.342-.948,3.153,3.153,0,0,0-1.732.379,1.161,1.161,0,0,0-.56,1,.981.981,0,0,0,.646.922,10.128,10.128,0,0,0,1.973.595,19.664,19.664,0,0,1,2.255.655A3.732,3.732,0,0,1,22.7,31.183a2.784,2.784,0,0,1,.629,1.913,3.307,3.307,0,0,1-.577,1.886,3.887,3.887,0,0,1-1.731,1.353,7.094,7.094,0,0,1-2.809.5A9.922,9.922,0,0,1,15.447,36.447Zm51.357.182h-2.79V24.568h5.22a6.719,6.719,0,0,1,2.782.535,4.144,4.144,0,0,1,1.817,1.517,4.188,4.188,0,0,1,.638,2.325,3.929,3.929,0,0,1-2.481,3.808l2.7,3.875-3,0-2.325-3.361H66.8v3.361h0Zm0-5.583h2.273a2.915,2.915,0,0,0,1.913-.552,2.176,2.176,0,0,0,0-3.11,2.949,2.949,0,0,0-1.913-.542H66.8ZM86.3,36.628H76.963V24.568h9.113v2.24h-6.34v2.618h5.6V31.6h-5.6v2.79H86.3v2.239h0Zm-51.435,0H25.528V24.568h9.113v2.24H28.3v2.618h5.6V31.6H28.3v2.79h6.563v2.239h0ZM121.2,31.263l-.01.011-5.328-5.938,2.22-1.954,3.208,2.331,7.765-6.39,1.7,2.242-9.553,9.709ZM69.445,19.536H67.493V10.988h1.636l4.249,5.188V10.988h1.953v8.545l-1.624,0-4.261-5.189v5.189h0Zm-35.09,0H32.378V10.988h3.7a4.793,4.793,0,0,1,1.972.378,2.829,2.829,0,0,1,1.74,2.723,2.784,2.784,0,0,1-1.758,2.7l1.915,2.745-2.123,0-1.648-2.381h-1.82v2.381h0Zm0-3.957h1.612a2.062,2.062,0,0,0,1.354-.391,1.362,1.362,0,0,0,.465-1.1,1.356,1.356,0,0,0-.465-1.1,2.077,2.077,0,0,0-1.354-.385H34.357ZM18.349,19.536H16.239L13.43,10.988h2.052L17.41,17l2.015-6.007h1.831l1.954,6.056,1.99-6.056h1.892l-2.8,8.546H22.172l-1.881-5.788-1.94,5.788h0Zm59.009,0V10.988H81.24a5.492,5.492,0,0,1,2.461.531,4,4,0,0,1,1.66,1.5,4.227,4.227,0,0,1,.592,2.246,4.224,4.224,0,0,1-.592,2.246A3.985,3.985,0,0,1,83.7,19a5.475,5.475,0,0,1-2.461.532Zm1.978-1.625h1.806a2.883,2.883,0,0,0,2.045-.715,2.531,2.531,0,0,0,.764-1.935,2.533,2.533,0,0,0-.764-1.935,2.882,2.882,0,0,0-2.045-.714H79.336ZM63.769,17.7H59.8l-.757,1.832H57.018l3.809-8.547H62.78L66.6,19.534l-2.075,0Zm-3.333-1.5h2.71L61.791,12.93Zm-4.629,3.334H49.546V10.988h1.977v6.935h4.286v1.612Zm-7.839,0H41.352V10.988h6.459v1.587H43.319v1.856h3.967V15.97H43.319v1.977H47.97v1.588Zm-17.618,0H28.374V10.988h1.978v8.547Z" transform="translate(28.081 14.651)"/></g></g></svg>