<svg xmlns="http://www.w3.org/2000/svg" width="72.053" height="51.477" viewBox="0 0 72.053 51.477"><defs><style>.a{fill:#707070;}</style></defs><g transform="translate(-108.947 -6546.265)"><path class="a" d="M37.158,3.66h0L20.773,16.37,16,20.059a.807.807,0,0,0-.252.3.367.367,0,0,0-.065.115.764.764,0,0,0-.065.18.721.721,0,0,0,0,.331.872.872,0,0,0,.094.252.216.216,0,0,0,.086.094.288.288,0,0,0,.094.094h0a.721.721,0,0,0,.252.122h.187l3.927-.137,1.917-.072h.115a.793.793,0,0,1,.231,0,.764.764,0,0,1,.223,0,1.938,1.938,0,0,1,.785.317,1.881,1.881,0,0,1,.3.245,1.391,1.391,0,0,1,.195.223,1.592,1.592,0,0,1,.166.259h0c0,.072.065.144.094.231a2.032,2.032,0,0,1,.13.519c0,.094,0,.195,0,.288a3.026,3.026,0,0,1-.043.44l-.757,4.323L19.288,52.512A22.171,22.171,0,0,1,.72,36.329,22.61,22.61,0,0,1,0,30.565,22.127,22.127,0,0,1,16.4,9.222Z" transform="translate(108.948 6545.23)"/><path class="a" d="M85.221,22.161A22.142,22.142,0,0,1,68.808,43.51L47.12,49.332,55.565,1.446a.721.721,0,0,0,0-.209h0L57.337.769A22.163,22.163,0,0,1,85.221,22.161Z" transform="translate(95.779 6546.248)"/></g></svg>