<svg xmlns="http://www.w3.org/2000/svg" width="151.82" height="81.429" viewBox="0 0 151.82 81.429"><defs><style>.a{fill:#e14c25;}.b{fill:#d11d4e;}.c{fill:#fff;}</style></defs><g transform="translate(0.017 -0.016)"><path class="a" d="M30.9,37.5a2.474,2.474,0,0,1,0,.471,3.689,3.689,0,0,1,0,.577l-.956,5.419-5.449,30.8a28.006,28.006,0,0,1-3.734-54.843L47.065,12.91,26.3,28.97l-6.072,4.675a2.81,2.81,0,0,0-.213.213.546.546,0,0,0-.106.152,1.412,1.412,0,0,0,0,.152.956.956,0,0,0-.106.638,2.2,2.2,0,0,0,.137.334.364.364,0,0,0,.091.121l.121.106a.941.941,0,0,0,.334.152h.258l3.7-.137h1.26l2.414-.076h.152a3.69,3.69,0,0,1,.577,0l.516.167a1.518,1.518,0,0,1,.319.152l.167.091h.091a1.9,1.9,0,0,1,.288.228l.243.288.121.2a1.594,1.594,0,0,1,.2.395,1.7,1.7,0,0,1,.152.471A1.613,1.613,0,0,0,30.9,37.5Z" transform="translate(0 6.678)"/><path class="b" d="M137.121,28.028a28.036,28.036,0,0,1-20.75,27.019L28.33,78.652,38.956,18.071a2.05,2.05,0,0,0,0-.273L101.859.963a28.037,28.037,0,0,1,35.262,27.065Z" transform="translate(14.682 0)"/><path class="b" d="M19.768,28.057a.759.759,0,0,0-.258-.167l.167.091Z" transform="translate(10.114 14.437)"/><path class="c" d="M19.768,28.057a.759.759,0,0,0-.258-.167l.167.091Z" transform="translate(10.114 14.437)"/><path class="c" d="M65,16.866c-.41.8-.941,1.852-1.624,3.142s-1.4,2.687-2.2,4.159-1.518,3.036-2.4,4.554-1.518,2.93-2.216,4.2-1.29,2.322-1.746,3.188a10.733,10.733,0,0,1-.88,1.518c-.182-.425-.531-1.2-1.047-2.338l-1.67-3.947c-.607-1.518-1.245-3.036-1.928-4.8s-1.305-3.385-1.867-4.979l-2.808.759a1,1,0,0,0-.744.82c-.106.865-.243,1.852-.379,2.96-.2,1.427-.395,2.96-.622,4.554s-.471,3.355-.713,5.1-.5,3.461-.744,5.115-.5,3.2-.744,4.645-.486,2.626-.668,3.582l2.687-.729c.091-.926.2-1.973.364-3.142s.273-2.368.455-3.6.349-2.414.546-3.613.379-2.307.531-3.309.3-1.867.41-2.611.213-1.23.243-1.518c.137.364.379.911.668,1.609l.987,2.444c.364.911.744,1.9,1.138,3.036l1.23,3.2c.395,1.063.774,2.095,1.123,3.036s.638,1.867.88,2.641l1.123-.288c.729-1.655,1.518-3.294,2.2-4.888s1.518-3.233,2.368-4.9,1.761-3.415,2.672-5.055S61.449,28.1,62.4,26.414c0,1.412-.137,2.914-.273,4.448s-.228,3.036-.379,4.554-.3,3.036-.455,4.387-.334,2.641-.5,3.7l5.343-1.427c0-.683.106-1.715.213-3.036s.2-2.914.364-4.554.288-3.476.455-5.313.319-3.658.486-5.358.334-3.248.516-4.645.319-2.474.425-3.233Z" transform="translate(20.727 8.248)"/><path class="c" d="M76.761,15.526l.349-3.036L63.449,16.163c0,.8-.091,1.928-.182,3.309s-.243,2.945-.41,4.554-.288,3.431-.486,5.267-.379,3.6-.607,5.3-.41,3.218-.592,4.554-.395,2.474-.562,3.248L74.272,38.7l.41-2.672c-.5.182-.941.349-1.336.471s-.774.288-1.169.41-.82.243-1.26.349-.956.288-1.518.455l-2.778.744c0-1.685.607-8.485.789-10.185l4.007-1.017c1.518-.349,2.747-.592,3.992-.789l.3-3.036-1.108.379-6.922,1.973c.106-1.032.41-6.861.683-8.425C69.581,17.12,76.381,15.6,76.761,15.526Z" transform="translate(31.401 6.461)"/><path class="c" d="M96.526,18.247a11.1,11.1,0,0,0-1.078-4.083,7.59,7.59,0,0,0-5.981-4.3,11.369,11.369,0,0,0-4.554.379,5.457,5.457,0,0,0-1.154.349l-1.791.531-1.837.5-1.2.349c-.607.167-1.214.3-1.791.425l-1.806.349c0,.941-.106,2.125-.228,3.567s-.273,3.036-.455,4.736-.364,3.461-.562,5.237-.425,3.552-.653,5.207-.41,3.142-.607,4.554-.364,2.429-.5,3.157l11.4-3.036c.774-.243,1.518-.516,2.368-.85a21.006,21.006,0,0,0,2.429-1.23,13.039,13.039,0,0,0,2.2-1.655,14.891,14.891,0,0,0,3.036-3.415,17.73,17.73,0,0,0,1.73-3.734,16.439,16.439,0,0,0,.941-3.734A15.18,15.18,0,0,0,96.526,18.247Zm-5.541,3.476a20.174,20.174,0,0,1-.425,3.036,17.7,17.7,0,0,1-.926,2.839,11.7,11.7,0,0,1-1.366,2.474,10.262,10.262,0,0,1-1.867,2A12.8,12.8,0,0,1,84.307,33.5a22.878,22.878,0,0,1-2.11.971c-.653.258-1.23.44-1.715.592l-1.23.258-1.123.243c0-.713.091-1.609.167-2.7s.2-2.292.319-3.613.288-2.687.425-4.114.319-2.839.516-4.25.334-2.687.5-3.931.334-2.322.486-3.233c.349-.137.7-.228,1.032-.334l1.032-.3c2.656-.7,4.675-.577,6.072.425a7.074,7.074,0,0,1,2.353,5.282,19.217,19.217,0,0,1-.046,2.93Z" transform="translate(37.472 5.061)"/></g></svg>