<svg xmlns="http://www.w3.org/2000/svg" width="30.483" height="26.035" viewBox="0 0 30.483 26.035"><path d="M32.3,81.5a9.084,9.084,0,0,0-7.058,3.534,9.078,9.078,0,0,0-7.048-3.527A8.172,8.172,0,0,0,10,90.017c0,5.686,5.042,9.655,8.725,12.554,1.394,1.1,2.417,1.879,3.25,2.513a25.524,25.524,0,0,1,2.687,2.212.826.826,0,0,0,1.163,0,38.06,38.06,0,0,1,4.084-3.319l1.841-1.4c3.048-2.324,8.731-6.641,8.731-12.619A8.144,8.144,0,0,0,32.3,81.5ZM18.193,83.152a7.743,7.743,0,0,1,6.364,3.723.876.876,0,0,0,1.369,0A7.758,7.758,0,0,1,32.3,83.149a6.534,6.534,0,0,1,6.538,6.812c0,4.762-4.174,8.336-8.087,11.31l-1.841,1.394c-1.913,1.449-2.843,2.156-3.673,2.911-.607-.541-1.282-1.054-2.268-1.8-.8-.607-1.823-1.387-3.235-2.5-3.415-2.684-8.09-6.364-8.09-11.251A6.564,6.564,0,0,1,18.193,83.152Z" transform="translate(-10 -81.5)"/></svg>