<svg xmlns="http://www.w3.org/2000/svg" width="25.893" height="26.035" viewBox="0 0 25.893 26.035"><path d="M690.736,575.166a13.115,13.115,0,0,0-6.13-9.651,1.3,1.3,0,1,0-1.363,2.219,10.487,10.487,0,0,1,4.906,7.717,1.3,1.3,0,0,0,1.292,1.16,1.331,1.331,0,0,0,.145-.008A1.3,1.3,0,0,0,690.736,575.166Z" transform="translate(-664.851 -550.579)"/><path d="M30.752,15.11a7.81,7.81,0,1,0-15.184,2.576,1.3,1.3,0,0,0,2.457-.856,5.208,5.208,0,1,1,4.917,3.488A12.994,12.994,0,0,0,10,31.89a1.3,1.3,0,0,0,1.152,1.437,1.339,1.339,0,0,0,.145.008,1.3,1.3,0,0,0,1.292-1.16A10.391,10.391,0,0,1,22.942,22.92,7.819,7.819,0,0,0,30.752,15.11Z" transform="translate(-9.995 -7.3)"/></svg>