<svg xmlns="http://www.w3.org/2000/svg" width="29.233" height="29.76" viewBox="0 0 29.233 29.76"><path d="M39.039,8.031a1.127,1.127,0,0,0-.934-.5h0L15.87,7.586,14.021,1.976A1.129,1.129,0,0,0,12.947,1.2h-1.82a1.129,1.129,0,1,0,0,2.258h1l1.84,5.587.018.051,2.819,8.558L13.3,24.189a1.129,1.129,0,0,0,1,1.661H34.153a1.128,1.128,0,1,0,0-2.255H16.184l2.524-4.7H34.466a1.124,1.124,0,0,0,1.047-.71l3.639-9.095A1.136,1.136,0,0,0,39.039,8.031Zm-5.339,8.6H18.844L16.61,9.841,36.432,9.8Z" transform="translate(-10 -1.2)"/><path d="M198.906,897.9a1.506,1.506,0,1,0,1.506,1.506A1.506,1.506,0,0,0,198.906,897.9Z" transform="translate(-191.81 -871.152)"/><path d="M659.506,897.9a1.506,1.506,0,1,0,1.506,1.506A1.506,1.506,0,0,0,659.506,897.9Z" transform="translate(-638.671 -871.152)"/></svg>